<?xml version="1.0" standalone="no"?>
<!DOCTYPE svg PUBLIC "-//W3C//DTD SVG 20010904//EN"
 "http://www.w3.org/TR/2001/REC-SVG-20010904/DTD/svg10.dtd">
<svg version="1.0" xmlns="http://www.w3.org/2000/svg"
 width="553.000000pt" height="397.000000pt" viewBox="0 0 553.000000 397.000000"
 preserveAspectRatio="xMidYMid meet">

<g transform="translate(0.000000,397.000000) scale(0.100000,-0.100000)"
fill="#000000" stroke="none">
<path d="M0 2750 c0 -671 2 -1220 5 -1220 3 0 34 21 68 48 91 70 157 115 202
137 22 11 51 30 65 43 14 12 33 25 43 28 9 3 15 10 12 15 -4 5 35 9 94 9 56 0
101 -3 101 -6 0 -4 -13 -22 -30 -41 -16 -18 -30 -39 -30 -46 -1 -7 -66 -52
-147 -102 -80 -49 -177 -110 -217 -135 -39 -25 -92 -59 -118 -75 -28 -17 -48
-37 -48 -47 0 -10 2 -18 4 -18 2 0 33 18 67 39 35 22 96 59 134 82 39 23 99
61 135 84 124 79 183 110 188 95 9 -25 72 -88 102 -100 37 -15 39 -30 4 -30
-60 0 -194 -96 -194 -140 0 -7 -7 -10 -15 -6 -9 3 -15 0 -15 -9 0 -8 -6 -12
-14 -9 -15 6 -156 -62 -156 -76 0 -4 -15 -3 -34 2 -31 10 -40 7 -120 -41 l-86
-52 0 -590 0 -589 2765 0 2765 0 0 1985 0 1985 -2765 0 -2765 0 0 -1220z
m3186 552 c95 -21 186 -56 163 -64 -7 -2 22 -22 66 -44 134 -67 218 -192 186
-276 -7 -18 -7 -28 -1 -28 6 0 10 -7 10 -15 0 -8 -4 -15 -10 -15 -5 0 -10 -13
-10 -30 0 -16 3 -30 8 -30 8 0 14 -37 15 -94 1 -22 3 -34 5 -28 2 7 8 12 12
12 17 0 -11 -56 -51 -103 -45 -52 -87 -76 -229 -132 -156 -61 -252 -79 -430
-79 -184 -1 -268 14 -440 81 -170 65 -249 124 -280 208 l-11 30 25 -30 c26
-31 35 -29 15 3 -8 13 -7 36 4 91 11 52 13 79 5 96 -11 25 7 88 41 146 12 19
25 44 30 56 12 26 107 123 121 123 5 0 7 7 4 15 -5 11 -2 13 12 8 12 -4 15 -3
10 5 -4 7 -1 12 8 12 19 0 21 16 4 24 -7 3 -2 3 11 0 14 -4 21 -2 18 3 -9 15
33 31 141 52 146 30 146 30 307 26 100 -2 180 -10 241 -23z m-965 -553 c-10
-23 -10 -22 -7 6 6 39 7 42 12 29 3 -6 0 -22 -5 -35z m2728 -28 c9 -6 11 -16
7 -27 -4 -10 -4 -15 0 -12 9 10 34 -17 34 -36 0 -29 -80 -51 -95 -26 -4 6 -30
22 -58 37 -50 25 -51 26 -27 36 22 8 107 34 120 36 3 0 11 -3 19 -8z m-4074
-731 l50 0 -37 -25 c-34 -23 -43 -25 -108 -19 -78 8 -89 18 -32 29 32 6 34 9
17 16 -14 7 -9 8 20 4 22 -2 62 -5 90 -5z m-161 -86 l46 -7 -52 -24 c-38 -17
-66 -23 -109 -22 -63 2 -96 14 -66 23 9 4 25 8 34 12 15 4 15 6 3 14 -18 11
72 13 144 4z m636 -183 c19 -10 48 -21 63 -25 15 -4 26 -10 23 -15 -3 -4 1
-33 8 -64 13 -54 12 -57 -6 -57 -18 0 -18 -1 -4 -16 9 -8 16 -21 16 -27 0 -7
-5 -5 -10 4 -12 20 -65 43 -84 36 -9 -4 -16 4 -20 24 -8 42 -48 79 -87 79 -46
0 -91 -25 -167 -94 -119 -108 -100 -100 -168 -70 l-59 26 35 17 c20 9 78 48
130 85 179 128 234 144 330 97z m-493 -247 c62 -34 64 -37 47 -55 -16 -18 -18
-17 -56 19 -21 20 -53 45 -71 54 -30 16 -30 17 -8 18 13 0 53 -16 88 -36z
m-664 -234 c-10 -11 -21 -20 -25 -20 -4 0 0 9 9 20 10 11 21 20 25 20 4 0 0
-9 -9 -20z"/>
</g>
</svg>
